<svg width="512" height="512" viewBox="0 0 512 512" fill="none" xmlns="http://www.w3.org/2000/svg">
<g clip-path="url(#clip0_17429_11022)">
<rect width="512" height="512" fill="black"/>
<rect width="512" height="512" transform="translate(-0.332031 0.0109863)" fill="black"/>
<g clip-path="url(#clip1_17429_11022)">
<path d="M316.488 177.099C313.654 175.418 310.596 174.149 307.404 173.33C305.148 172.753 302.84 172.403 300.515 172.284C281.256 171.29 264.841 186.096 263.846 205.353C262.852 224.609 277.658 241.027 296.914 242.022C316.171 243.016 332.589 228.21 333.583 208.953C333.913 202.589 332.494 196.256 329.481 190.641C326.467 185.025 321.974 180.342 316.488 177.099Z" fill="#EF4823"/>
<path d="M320.26 342.189L320.222 342.058C316.546 347.265 308.912 357.173 306.093 360.12C292.928 373.832 276.29 380.688 256.179 380.688C236.068 380.688 219.248 373.832 205.72 360.12C192.191 346.408 185.426 329.314 185.425 308.838C185.423 288.363 192.188 271.27 205.72 257.56C218.348 244.74 233.861 237.911 252.258 237.072C246.138 228.692 242.844 218.582 242.852 208.205C242.852 191.87 250.877 177.393 263.16 168.446C260.68 168.316 258.173 168.237 255.67 168.237C236.072 168.216 216.686 172.294 198.757 180.209L198.743 180.223C194.563 182.066 190.485 184.118 186.524 186.339V133.87C186.524 94.1874 154.347 62.011 114.665 62.011V308.856C114.662 308.914 114.666 308.973 114.679 309.03V309.251C114.679 376.201 161.334 432.257 223.921 446.658C225.194 446.957 226.48 447.229 227.765 447.489C234.951 448.925 242.237 449.8 249.558 450.107H249.57C259.933 443.77 268.515 437.654 270.463 436.252C313.054 405.556 325.571 362.679 320.26 342.189Z" fill="#EF4823"/>
<path d="M391.747 346.267C391.747 346.248 391.747 346.224 391.747 346.204C391.937 345.508 392.13 344.802 392.324 344.079C395.213 332.692 396.671 320.989 396.665 309.241C396.665 268.526 379.399 231.849 351.798 206.11C351.76 217.133 349.372 236.374 334.716 248.438C319.925 260.614 295.845 262.666 238.338 250.431C238.338 250.431 312.147 269.505 330.31 339.573C337.233 366.282 320.556 416.647 269.344 449.574C328.307 443.902 376.64 401.926 391.747 346.267Z" fill="#EF4823"/>
</g>
</g>
<defs>
<clipPath id="clip0_17429_11022">
<rect width="512" height="512" fill="white"/>
</clipPath>
<clipPath id="clip1_17429_11022">
<rect width="282" height="388.096" fill="white" transform="translate(114.668 62.011)"/>
</clipPath>
</defs>
</svg>
