<svg width="512" height="512" viewBox="0 0 512 512" fill="none" xmlns="http://www.w3.org/2000/svg">
<g clip-path="url(#clip0_17441_43527)">
<path d="M316.82 177.088C313.986 175.407 310.928 174.138 307.736 173.319C305.48 172.742 303.172 172.392 300.847 172.274C281.588 171.279 265.173 186.085 264.178 205.342C263.184 224.598 277.99 241.016 297.246 242.011C316.503 243.005 332.921 228.199 333.915 208.942C334.245 202.578 332.827 196.245 329.813 190.63C326.799 185.014 322.306 180.331 316.82 177.088Z" fill="#EF4823"/>
<path d="M320.592 342.178L320.554 342.047C316.878 347.254 309.244 357.162 306.425 360.109C293.26 373.821 276.622 380.677 256.511 380.677C236.4 380.677 219.58 373.821 206.052 360.109C192.523 346.397 185.758 329.303 185.757 308.827C185.755 288.352 192.52 271.259 206.052 257.549C218.68 244.729 234.193 237.9 252.59 237.061C246.47 228.681 243.176 218.571 243.184 208.194C243.184 191.859 251.209 177.382 263.492 168.435C261.012 168.305 258.505 168.226 256.002 168.226C236.404 168.205 217.018 172.283 199.089 180.199L199.075 180.212C194.895 182.055 190.817 184.107 186.856 186.328V133.859C186.856 94.1764 154.679 62 114.997 62V308.845C114.994 308.903 114.999 308.962 115.011 309.019V309.24C115.011 376.19 161.666 432.246 224.253 446.647C225.526 446.946 226.812 447.218 228.097 447.478C235.283 448.914 242.569 449.789 249.89 450.096H249.902C260.265 443.759 268.847 437.643 270.795 436.241C313.386 405.545 325.903 362.668 320.592 342.178Z" fill="#EF4823"/>
<path d="M392.079 346.256C392.079 346.237 392.079 346.213 392.079 346.193C392.269 345.497 392.462 344.791 392.656 344.068C395.545 332.681 397.003 320.978 396.997 309.23C396.997 268.515 379.731 231.838 352.13 206.099C352.092 217.122 349.704 236.363 335.048 248.427C320.257 260.603 296.177 262.655 238.67 250.42C238.67 250.42 312.48 269.494 330.642 339.562C337.565 366.271 320.888 416.636 269.676 449.563C328.639 443.891 376.972 401.915 392.079 346.256Z" fill="#EF4823"/>
</g>
<defs>
<clipPath id="clip0_17441_43527">
<rect width="282" height="388.096" fill="white" transform="translate(115 62)"/>
</clipPath>
</defs>
</svg>
